<svg id="visual" viewBox="0 0 900 300" width="900" height="300" xmlns="http://www.w3.org/2000/svg" xmlns:xlink="http://www.w3.org/1999/xlink" version="1.1"><path d="M0 42L69 94L138 129L208 83L277 111L346 127L415 119L485 56L554 119L623 79L692 62L762 111L831 82L900 71L900 0L831 0L762 0L692 0L623 0L554 0L485 0L415 0L346 0L277 0L208 0L138 0L69 0L0 0Z" fill="#ffd700"></path><path d="M0 84L69 68L138 97L208 104L277 104L346 112L415 64L485 105L554 107L623 74L692 62L762 103L831 46L900 104L900 0L831 0L762 0L692 0L623 0L554 0L485 0L415 0L346 0L277 0L208 0L138 0L69 0L0 0Z" fill="#d5b41a"></path><path d="M0 39L69 79L138 35L208 48L277 80L346 74L415 59L485 49L554 46L623 95L692 39L762 48L831 52L900 86L900 0L831 0L762 0L692 0L623 0L554 0L485 0L415 0L346 0L277 0L208 0L138 0L69 0L0 0Z" fill="#ac9222"></path><path d="M0 66L69 76L138 66L208 75L277 57L346 32L415 55L485 49L554 69L623 77L692 49L762 75L831 76L900 78L900 0L831 0L762 0L692 0L623 0L554 0L485 0L415 0L346 0L277 0L208 0L138 0L69 0L0 0Z" fill="#857124"></path><path d="M0 45L69 53L138 46L208 22L277 30L346 61L415 38L485 51L554 25L623 23L692 21L762 52L831 51L900 39L900 0L831 0L762 0L692 0L623 0L554 0L485 0L415 0L346 0L277 0L208 0L138 0L69 0L0 0Z" fill="#605223"></path><path d="M0 40L69 34L138 24L208 26L277 24L346 15L415 35L485 38L554 33L623 26L692 45L762 36L831 24L900 15L900 0L831 0L762 0L692 0L623 0L554 0L485 0L415 0L346 0L277 0L208 0L138 0L69 0L0 0Z" fill="#3c3520"></path><path d="M0 23L69 20L138 6L208 27L277 26L346 8L415 23L485 19L554 21L623 19L692 10L762 5L831 12L900 28L900 0L831 0L762 0L692 0L623 0L554 0L485 0L415 0L346 0L277 0L208 0L138 0L69 0L0 0Z" fill="#1a1a1a"></path></svg>