<svg id="visual" viewBox="0 0 900 300" width="900" height="300" xmlns="http://www.w3.org/2000/svg"
    xmlns:xlink="http://www.w3.org/1999/xlink" version="1.1">
    <rect x="0" y="0" width="900" height="300" fill="#002233"></rect>
    <path
        d="M0 255L21.5 252.5C43 250 86 245 128.8 244C171.7 243 214.3 246 257.2 240.7C300 235.3 343 221.7 385.8 212C428.7 202.3 471.3 196.7 514.2 201.5C557 206.3 600 221.7 642.8 224.8C685.7 228 728.3 219 771.2 221.8C814 224.7 857 239.3 878.5 246.7L900 254L900 301L878.5 301C857 301 814 301 771.2 301C728.3 301 685.7 301 642.8 301C600 301 557 301 514.2 301C471.3 301 428.7 301 385.8 301C343 301 300 301 257.2 301C214.3 301 171.7 301 128.8 301C86 301 43 301 21.5 301L0 301Z"
        fill="#0066FF" stroke-linecap="round" stroke-linejoin="miter"></path>
</svg>