<svg id="visual" viewBox="0 0 900 300" width="900" height="300" xmlns="http://www.w3.org/2000/svg"
    xmlns:xlink="http://www.w3.org/1999/xlink" version="1.1">
    <rect x="0" y="0" width="900" height="300" fill="#1a1a1a"></rect>
    <path
        d="M0 89L12.5 86.2C25 83.3 50 77.7 75 73.3C100 69 125 66 150 74.8C175 83.7 200 104.3 225 108.3C250 112.3 275 99.7 300 91.3C325 83 350 79 375 83.2C400 87.3 425 99.7 450 110C475 120.3 500 128.7 525 129.2C550 129.7 575 122.3 600 110.7C625 99 650 83 675 78.7C700 74.3 725 81.7 750 89.7C775 97.7 800 106.3 825 110.7C850 115 875 115 887.5 115L900 115L900 0L887.5 0C875 0 850 0 825 0C800 0 775 0 750 0C725 0 700 0 675 0C650 0 625 0 600 0C575 0 550 0 525 0C500 0 475 0 450 0C425 0 400 0 375 0C350 0 325 0 300 0C275 0 250 0 225 0C200 0 175 0 150 0C125 0 100 0 75 0C50 0 25 0 12.5 0L0 0Z"
        fill="#1a1a1a"></path>
    <path
        d="M0 89L12.5 83C25 77 50 65 75 59.5C100 54 125 55 150 54.8C175 54.7 200 53.3 225 58C250 62.7 275 73.3 300 80C325 86.7 350 89.3 375 85.5C400 81.7 425 71.3 450 67.2C475 63 500 65 525 66.5C550 68 575 69 600 73.2C625 77.3 650 84.7 675 90C700 95.3 725 98.7 750 102.3C775 106 800 110 825 107.2C850 104.3 875 94.7 887.5 89.8L900 85L900 0L887.5 0C875 0 850 0 825 0C800 0 775 0 750 0C725 0 700 0 675 0C650 0 625 0 600 0C575 0 550 0 525 0C500 0 475 0 450 0C425 0 400 0 375 0C350 0 325 0 300 0C275 0 250 0 225 0C200 0 175 0 150 0C125 0 100 0 75 0C50 0 25 0 12.5 0L0 0Z"
        fill="#252637"></path>
    <path
        d="M0 37L12.5 39.8C25 42.7 50 48.3 75 49.3C100 50.3 125 46.7 150 53C175 59.3 200 75.7 225 84.5C250 93.3 275 94.7 300 92.5C325 90.3 350 84.7 375 80C400 75.3 425 71.7 450 75.5C475 79.3 500 90.7 525 88.3C550 86 575 70 600 71.5C625 73 650 92 675 93.5C700 95 725 79 750 67.3C775 55.7 800 48.3 825 48.8C850 49.3 875 57.7 887.5 61.8L900 66L900 0L887.5 0C875 0 850 0 825 0C800 0 775 0 750 0C725 0 700 0 675 0C650 0 625 0 600 0C575 0 550 0 525 0C500 0 475 0 450 0C425 0 400 0 375 0C350 0 325 0 300 0C275 0 250 0 225 0C200 0 175 0 150 0C125 0 100 0 75 0C50 0 25 0 12.5 0L0 0Z"
        fill="#2e3255"></path>
    <path
        d="M0 38L12.5 37.3C25 36.7 50 35.3 75 36.3C100 37.3 125 40.7 150 45.5C175 50.3 200 56.7 225 58.2C250 59.7 275 56.3 300 57.5C325 58.7 350 64.3 375 70.5C400 76.7 425 83.3 450 78.8C475 74.3 500 58.7 525 52.2C550 45.7 575 48.3 600 55.2C625 62 650 73 675 70.5C700 68 725 52 750 51.7C775 51.3 800 66.7 825 71.5C850 76.3 875 70.7 887.5 67.8L900 65L900 0L887.5 0C875 0 850 0 825 0C800 0 775 0 750 0C725 0 700 0 675 0C650 0 625 0 600 0C575 0 550 0 525 0C500 0 475 0 450 0C425 0 400 0 375 0C350 0 325 0 300 0C275 0 250 0 225 0C200 0 175 0 150 0C125 0 100 0 75 0C50 0 25 0 12.5 0L0 0Z"
        fill="#363f76"></path>
    <path
        d="M0 32L12.5 33.2C25 34.3 50 36.7 75 39.5C100 42.3 125 45.7 150 47.2C175 48.7 200 48.3 225 43.2C250 38 275 28 300 23.5C325 19 350 20 375 21.7C400 23.3 425 25.7 450 26.2C475 26.7 500 25.3 525 32.5C550 39.7 575 55.3 600 59C625 62.7 650 54.3 675 47.2C700 40 725 34 750 31C775 28 800 28 825 26.7C850 25.3 875 22.7 887.5 21.3L900 20L900 0L887.5 0C875 0 850 0 825 0C800 0 775 0 750 0C725 0 700 0 675 0C650 0 625 0 600 0C575 0 550 0 525 0C500 0 475 0 450 0C425 0 400 0 375 0C350 0 325 0 300 0C275 0 250 0 225 0C200 0 175 0 150 0C125 0 100 0 75 0C50 0 25 0 12.5 0L0 0Z"
        fill="#3c4d98"></path>
    <path
        d="M0 20L12.5 18.3C25 16.7 50 13.3 75 14.2C100 15 125 20 150 22C175 24 200 23 225 25.3C250 27.7 275 33.3 300 31.5C325 29.7 350 20.3 375 19.3C400 18.3 425 25.7 450 32.7C475 39.7 500 46.3 525 44.2C550 42 575 31 600 30.5C625 30 650 40 675 45.7C700 51.3 725 52.7 750 47.7C775 42.7 800 31.3 825 24C850 16.7 875 13.3 887.5 11.7L900 10L900 0L887.5 0C875 0 850 0 825 0C800 0 775 0 750 0C725 0 700 0 675 0C650 0 625 0 600 0C575 0 550 0 525 0C500 0 475 0 450 0C425 0 400 0 375 0C350 0 325 0 300 0C275 0 250 0 225 0C200 0 175 0 150 0C125 0 100 0 75 0C50 0 25 0 12.5 0L0 0Z"
        fill="#405bbc"></path>
    <path
        d="M0 16L12.5 14.8C25 13.7 50 11.3 75 13.3C100 15.3 125 21.7 150 26.2C175 30.7 200 33.3 225 30.8C250 28.3 275 20.7 300 15.7C325 10.7 350 8.3 375 12.2C400 16 425 26 450 30C475 34 500 32 525 26C550 20 575 10 600 7.5C625 5 650 10 675 12C700 14 725 13 750 15.2C775 17.3 800 22.7 825 22C850 21.3 875 14.7 887.5 11.3L900 8L900 0L887.5 0C875 0 850 0 825 0C800 0 775 0 750 0C725 0 700 0 675 0C650 0 625 0 600 0C575 0 550 0 525 0C500 0 475 0 450 0C425 0 400 0 375 0C350 0 325 0 300 0C275 0 250 0 225 0C200 0 175 0 150 0C125 0 100 0 75 0C50 0 25 0 12.5 0L0 0Z"
        fill="#4169e1"></path>
</svg>